<svg width="20" height="24" viewBox="0 0 20 24" fill="none" xmlns="http://www.w3.org/2000/svg">
<path d="M19.1844 3.04739V1.73032H15.6242V3.04739H13.5205V0.845411H10.0615V3.04739H9.131V0.845411H5.65175V3.04739H3.52779V1.7509H0.0283203V3.04739V5.04358V6.23718H19.1844V3.04739Z" fill="#0094FD"/>
<path d="M19.1844 3.04739V1.7509H15.6242V3.04739H13.5205V0.865991H10.0615V3.04739H9.131V0.845411H5.65175V3.04739H3.52779V1.73032H0.0283203V3.04739V5.023V6.2166H19.1844V3.04739Z" fill="#0094FD"/>
<path d="M5.97644 17.206C6.11804 16.6092 5.73371 16.0124 5.14709 15.8683C4.56047 15.7242 3.97385 16.1152 3.83226 16.712C3.69066 17.3089 4.05477 17.9057 4.66161 18.0497C5.24823 18.1938 5.83485 17.8028 5.97644 17.206Z" fill="#0094FD"/>
<path d="M9.1319 15.7654L7.51364 13.9544L9.1319 12.1846V7.18383H0.0494466C-0.0112379 7.26615 0.0089903 8.43917 0.0292185 10.2296H2.90162C3.16459 9.38581 3.93326 8.83017 4.8233 8.83017C5.93585 8.83017 6.84611 9.75624 6.84611 10.8881C6.84611 12.02 5.93585 12.946 4.8233 12.946C3.87257 12.946 3.08367 12.3286 2.86116 11.4437H0.0089903C0.0089903 12.6991 -0.0112379 14.0161 0.0089903 15.2303C1.26314 15.7448 3.12413 15.93 3.12413 15.93C3.54892 15.1686 4.43896 14.7364 5.30877 14.9422C6.40109 15.1892 7.08885 16.2799 6.84611 17.3911C6.60337 18.5024 5.53128 19.2021 4.43896 18.9552C3.52869 18.7494 2.88139 17.9262 2.86116 17.0207C2.86116 17.0207 1.24291 16.9178 0.0089903 16.4239C0.0292185 17.8851 0.0089903 18.9758 0.0089903 18.9758C3.91303 22.2273 9.1319 24.2235 9.1319 24.2235V15.7654Z" fill="#0094FD"/>
<path d="M5.93586 10.8881C5.93586 10.2707 5.45039 9.77682 4.84354 9.77682C4.2367 9.77682 3.75122 10.2707 3.75122 10.8881C3.75122 11.5055 4.2367 11.9994 4.84354 11.9994C5.43016 12.02 5.93586 11.5055 5.93586 10.8881Z" fill="#0094FD"/>
<path d="M19.145 7.18383H10.0625V12.02V15.6008V24.1823C10.0625 24.1823 11.701 23.5032 14.007 22.2479V15.2097C13.1776 14.9422 12.5708 14.1602 12.5708 13.2547C12.5708 12.1229 13.4811 11.1968 14.5936 11.1968C15.7062 11.1968 16.6164 12.1229 16.6164 13.2547C16.6164 14.2219 16.05 14.9834 15.1802 15.2303V21.6511C16.4748 20.8896 17.9313 19.9636 19.1854 18.914C19.2056 18.914 19.2663 7.18383 19.145 7.18383Z" fill="#0094FD"/>
<path d="M15.7061 13.2547C15.7061 12.6373 15.2206 12.1434 14.6138 12.1434C14.007 12.1434 13.5215 12.6373 13.5215 13.2547C13.5215 13.8721 14.007 14.366 14.6138 14.366C15.2206 14.366 15.7061 13.8721 15.7061 13.2547Z" fill="#0094FD"/>
</svg>
